<svg xmlns="http://www.w3.org/2000/svg" width="100" height="100" viewBox="0 0 100 100">
  <defs>
    <style>
      .cls-1 {
        fill: #dcf2ff;
      }

      .cls-2 {
        fill: #1b386b;
      }

      .cls-2, .cls-3 {
        fill-rule: evenodd;
      }

      .cls-3 {
        fill: #0097e0;
      }
    </style>
  </defs>
  <g id="Control" transform="translate(12345 1290)">
    <path id="Path_5705" data-name="Path 5705" class="cls-1" d="M95,0H5A5,5,0,0,0,0,5V95a5,5,0,0,0,5,5H95a5,5,0,0,0,5-5V5A5,5,0,0,0,95,0Z" transform="translate(-12345 -1290)"/>
    <path id="Path_5706" data-name="Path 5706" class="cls-2" d="M43,47a6,6,0,0,0-6,6V73a6,6,0,0,0,6,6H57a6,6,0,0,0,6-6V53a6,6,0,0,0-6-6ZM33,53A10,10,0,0,1,43,43H57A10,10,0,0,1,67,53V73A10,10,0,0,1,57,83H43A10,10,0,0,1,33,73Z" transform="translate(-12345 -1290)"/>
    <path id="Path_5707" data-name="Path 5707" class="cls-3" d="M34.727,37.008A2,2,0,0,1,31.267,35L33,36c-1.733-1-1.732-1-1.732-1v0l0-.005.007-.012.02-.033.061-.1c.05-.08.12-.188.211-.32.181-.263.444-.623.8-1.046a18.906,18.906,0,0,1,3.246-3.048,23.18,23.18,0,0,1,14.139-4.355A24.29,24.29,0,0,1,64.1,30.41a20.5,20.5,0,0,1,3.4,3.02c.374.418.655.773.849,1.033.1.13.172.236.226.314l.065.1.021.032.007.012,0,0v0s0,0-1.647,1.052l1.648-1.05A2,2,0,0,1,65.3,37.083h0v0l0,0,0,0h0l-.024-.036c-.026-.038-.071-.1-.136-.188-.13-.174-.337-.437-.627-.762a16.512,16.512,0,0,0-2.735-2.425,20.3,20.3,0,0,0-12.028-3.59A19.2,19.2,0,0,0,38,33.645a14.914,14.914,0,0,0-2.558,2.4c-.266.32-.455.579-.571.749-.058.085-.1.147-.121.183l-.021.033m30.571.069v0h0v0Zm0,0v0L66.984,36C65.314,37.064,65.3,37.075,65.3,37.076Zm-30.571-.068Z" transform="translate(-12345 -1290)"/>
    <path id="Path_5708" data-name="Path 5708" class="cls-3" d="M26.78,28.921l-.041.068L26.733,29a2,2,0,0,1-3.47-1.989l1.682.96c-1.682-.96-1.681-.961-1.681-.962v0l0-.006.008-.014.025-.042c.02-.033.047-.078.081-.133.068-.11.166-.262.293-.449.255-.375.631-.894,1.137-1.508a27.48,27.48,0,0,1,4.7-4.452c4.311-3.234,11.01-6.4,20.629-6.4A35.237,35.237,0,0,1,71.1,20.375,29.863,29.863,0,0,1,76.029,24.8c.54.61.943,1.124,1.218,1.5.137.186.242.336.316.444.037.054.066.1.087.13l.026.041.009.014,0,.005v0s0,0-1.636,1.035l1.637-1.033a2,2,0,0,1-3.38,2.14v0h0l0-.007-.047-.07c-.046-.067-.121-.175-.227-.318-.211-.285-.542-.708-1-1.223a25.866,25.866,0,0,0-4.271-3.826A31.246,31.246,0,0,0,50.139,18c-8.672,0-14.542,2.834-18.228,5.6A23.48,23.48,0,0,0,27.9,27.4c-.421.511-.723.93-.915,1.211C26.889,28.749,26.821,28.855,26.78,28.921Z" transform="translate(-12345 -1290)"/>
    <path id="Path_5709" data-name="Path 5709" class="cls-2" d="M50,54a5,5,0,1,0,5,5A5,5,0,0,0,50,54Zm-9,5a9,9,0,1,1,9,9A9,9,0,0,1,41,59Z" transform="translate(-12345 -1290)"/>
  </g>
</svg>
