<svg xmlns="http://www.w3.org/2000/svg" id="Install_" width="100" height="100" data-name="Install" viewBox="0 0 100 100">
    <defs>
        <style>
            .cls-1{fill:#dcf2ff}
        </style>
    </defs>
    <path id="Path_5542" d="M95 0H5a5 5 0 0 0-5 5v90a5 5 0 0 0 5 5h90a5 5 0 0 0 5-5V5a5 5 0 0 0-5-5z" class="cls-1" data-name="Path 5542"/>
    <path id="Path_5543" d="M50 60a9 9 0 1 0-9-9 9 9 0 0 0 9 9z" class="cls-1" data-name="Path 5543"/>
    <path id="Path_5544" fill="none" stroke="#0097e0" stroke-width="4px" d="M50 58a7 7 0 1 0-7-7 7 7 0 0 0 7 7z" data-name="Path 5544"/>
    <path id="Path_5545" fill="#1b386b" d="M41.57 72.4l2.4-4.066a7 7 0 0 1 12.053 0l2.4 4.069A22.974 22.974 0 0 0 64.318 69L62 64.883a6.944 6.944 0 0 1 .037-6.934 6.932 6.932 0 0 1 5.988-3.493l4.723-.05a23.456 23.456 0 0 0 0-6.8l-4.725-.047A7 7 0 0 1 62 37.115L64.32 33a22.916 22.916 0 0 0-5.889-3.406l-2.4 4.072a7 7 0 0 1-12.053 0l-2.408-4.073A22.935 22.935 0 0 0 35.68 33L38 37.116a7 7 0 0 1-6.027 10.435l-4.723.049a23.27 23.27 0 0 0 0 6.8l4.723.05a6.932 6.932 0 0 1 5.988 3.493 6.944 6.944 0 0 1 .039 6.94L35.682 69a22.948 22.948 0 0 0 5.888 3.4zm15.037 4.778l-4.025-6.808a3 3 0 0 0-5.164 0l-4.025 6.813a26.968 26.968 0 0 1-12.762-7.372l3.885-6.888a3 3 0 0 0-2.582-4.472l-7.916-.083a27.191 27.191 0 0 1 0-14.738l7.916-.079a3 3 0 0 0 2.582-4.471l-3.885-6.893a26.971 26.971 0 0 1 12.758-7.373l4.029 6.817a3 3 0 0 0 5.164 0l4.027-6.817a26.955 26.955 0 0 1 12.76 7.375l-3.885 6.891a3 3 0 0 0 2.582 4.471l7.914.079a27.194 27.194 0 0 1 0 14.738l-7.914.083a3 3 0 0 0-2.582 4.472l3.883 6.889a26.958 26.958 0 0 1-12.76 7.371z" data-name="Path 5545"/>
</svg>
